<svg width="338" height="339" viewBox="0 0 338 339" fill="none" xmlns="http://www.w3.org/2000/svg">
<path d="M204.183 195.581V178.514L130.098 139.52V195.581H130.078V276.438L204.203 315.432V195.581H204.183Z" fill="#007AFF"/>
<path d="M231.355 135.17V142.977V226.722V317.954L305.441 278.96V226.722V142.977V96.176L231.355 135.17Z" fill="#007AFF"/>
<path d="M176.341 118.408C176.087 107.527 174.345 96.7324 171.163 86.3242C164.451 64.7469 150.301 46.2505 131.232 34.1259C119.815 27.1519 106.767 23.2992 93.393 22.9534C80.8264 22.2962 67.742 24.7856 57.4059 32.1344C46.4781 40.1835 38.4223 51.5273 34.4235 64.4969C32.684 69.8173 31.4244 75.2826 30.6594 80.8276C30.0954 84.8543 29.7696 88.9108 29.6836 92.976C29.6836 94.5493 29.6836 96.1425 29.6836 97.7358V223.641L103.769 262.655V98.2138L176.142 131.831C176.4 127.35 176.48 122.869 176.341 118.408Z" fill="#007AFF"/>
</svg>
